# xmcd CD database file
#
# Track frame offsets:
#	150
#	14553
#	32343
#	52986
#	70988
#	92734
#	108673
#	138739
#	153729
#	170375
#	184448
#	203096
#	232422
#	245269
#	259736
#	266080
#	285641
#	312149
#	324902
#	342894
#
# Disc length: 4784 seconds
#
# Revision: 3
# Processed by: cddbd v1.5.2PL0 Copyright (c) Steve Scherf et al.
# Submitted via: CDex 1.51
#
DISCID=2a12ae14
DTITLE=Tom Troubert's Blues - Tom Waits
DYEAR=2006
DGENRE=Blues
TTITLE0=I Hope That I Don't Fall In Love With You
TTITLE1=Downtown Train
TTITLE2=CHRISTMAS CARD FROM A HOOKER IN MINNEAPOLIS
TTITLE3=TIME
TTITLE4=HANG ON ST. CHRISTOPHER
TTITLE5=Blue Skies
TTITLE6=Tom Troubert's Blues
TTITLE7=WHISTLIN' PAST THE GRAVEYARD
TTITLE8=PICTURE IN A FRAME
TTITLE9=Ice Cream Man
TTITLE10=I'LL NEVER LET GO OF YOUR HEAD
TTITLE11=BIG JOE AND PHANTOM 309
TTITLE12=JOCKEY FULL OF BOURBON
TTITLE13=STRAYDOG HELP YOURSELF
TTITLE14=I Want You
TTITLE15=PARADISE ALLEY
TTITLE16=BLUE VALENTINE
TTITLE17=SINGAPORE
TTITLE18=Ol' 55
TTITLE19=So Long I'll See Ya
EXTD=YEAR: 2006
EXTT0=
EXTT1=
EXTT2=
EXTT3=
EXTT4=
EXTT5=
EXTT6=
EXTT7=
EXTT8=
EXTT9=
EXTT10=
EXTT11=
EXTT12=
EXTT13=
EXTT14=
EXTT15=
EXTT16=
EXTT17=
EXTT18=
EXTT19=
PLAYORDER=
